<?xml version="1.0" encoding="utf-8"?>
<!-- Generator: Adobe Illustrator 26.5.0, SVG Export Plug-In . SVG Version: 6.00 Build 0)  -->
<svg version="1.1" id="Capa_1" xmlns="http://www.w3.org/2000/svg" xmlns:xlink="http://www.w3.org/1999/xlink" x="0px" y="0px"
	 viewBox="0 0 141 45" style="enable-background:new 0 0 141 45;" xml:space="preserve">
<style type="text/css">
	.st0{fill:#3143DE;}
	.st1{fill:none;stroke:url(#SVGID_1_);stroke-width:7;stroke-miterlimit:10;}
</style>
<path class="st0" d="M131.3,11.2c-2.5,0-4.6,0.8-6.1,2.3v-1.6h-6.3v9c0.9,0,1.8-0.2,2.7-0.6c1.4-0.6,2.6-1.4,3.7-2.5
	c1.1-1.1,2.4-1.6,3.9-1.6c2.2,0,3.8,0.9,4.9,2.8c1.2,2.1,1.1,4.5-0.2,6.5c-1.9,2.7-5.4,3.3-8,1.4c-0.3-0.2-0.6-0.5-0.8-0.7
	c-0.8-0.9-1.9-1.6-3-2.2c-1-0.6-2.2-0.8-3.2-0.8v15.9h6.3v-8.5c1.5,1.4,3.6,2.3,6.1,2.3c5.2,0,9.6-4.3,9.6-10.8
	C140.9,15.5,136.6,11.2,131.3,11.2z"/>
<path class="st0" d="M115.1,23.7c-1.4,0.6-2.6,1.4-3.7,2.4c-1.3,1.3-2.9,1.9-4.7,1.7c-1.3-0.1-2.5-0.8-3.5-1.8
	c-1.8-1.8-2.2-4.9-0.8-7.2c1.3-2.3,4.1-3.4,6.6-2.5c0.9,0.3,1.7,0.8,2.3,1.5c1.6,1.5,3.4,2.6,5.5,3c0.2,0,0.4,0,0.7,0v-9h-6.3v1.6
	c-1.5-1.4-3.6-2.3-6.1-2.3c-5.2,0-9.6,4.4-9.6,10.8c0,6.5,4.4,10.8,9.6,10.8c2.5,0,4.6-0.8,6.1-2.3v1.6h6.3v-9
	C116.7,23.1,115.9,23.3,115.1,23.7z"/>
<path class="st0" d="M59.4,25.6c0.3,1.8,1.9,2.4,3.6,2.4s2.6-0.8,2.6-1.6c0-0.7-0.6-1.2-2-1.5l-4.1-0.8c-3.8-0.7-5.8-2.7-5.8-5.9
	c0-4.2,3.6-6.9,8.6-6.9c5,0,8.4,2.3,9.2,5.8l-5.8,1.2c-0.2-1.2-1.4-2.4-3.4-2.4c-1.7,0-2.3,0.8-2.3,1.6c0,0.6,0.3,1.1,1.5,1.4
	l4.7,0.9c3.8,0.8,5.5,3.1,5.5,6.1c0,4.5-3.8,6.9-9.2,6.9c-4.7,0-8.8-1.8-9.5-5.9L59.4,25.6z"/>
<path class="st0" d="M94.2,19.9v12.9h-6.6V21.4c0-2.4-1.4-4.1-3.6-4.1c-2.6,0-4.3,1.8-4.3,5.8v9.8h-6.6v-21h6.6v2
	c1.6-1.7,3.8-2.6,6.4-2.6C90.9,11.2,94.2,14.7,94.2,19.9z"/>
<linearGradient id="SVGID_1_" gradientUnits="userSpaceOnUse" x1="7.281554e-02" y1="23.7989" x2="42.117" y2="23.7989" gradientTransform="matrix(1 0 0 -1 0 46)">
	<stop  offset="4.748603e-02" style="stop-color:#1F64E1"/>
	<stop  offset="0.2494" style="stop-color:#245EE0"/>
	<stop  offset="0.4274" style="stop-color:#2D53DF"/>
	<stop  offset="0.5377" style="stop-color:#2E4EDF"/>
	<stop  offset="0.834" style="stop-color:#3143DE"/>
</linearGradient>
<path class="st1" d="M38.7,21.9c-0.2-9.5-7.8-17.1-17.3-17.3C11.7,4.6,3.7,12.3,3.6,22c0,3,0.8,5.9,2.1,8.4L4,37.6
	c-0.2,1.3,0.7,1.9,1.6,1.9l7.5-1.6c2.4,1.2,5.2,1.9,8.1,1.9C30.9,39.7,38.8,31.6,38.7,21.9z"/>
</svg>
